# xmcd
#
# Track frame offsets: 
#        150
#        17551
#        34433
#        65927
#
# Disc length: 2536 seconds
#
# Revision: 0
# Processed by: cddbd v1.5.2PL0 Copyright (c) Steve Scherf et al.
# Submitted via: ExactAudioCopy v0.99pb5
#
DISCID=3509e604
DTITLE=Usher - Confessions Pt.2
DYEAR=2004
DGENRE=R&B
TTITLE0=Confessions Pt.2
TTITLE1=My Boo
TTITLE2=Confessions Pt.2 (remix)
TTITLE3=Confessions Pt.2
EXTD=
EXTT0=
EXTT1=
EXTT2=
EXTT3=
PLAYORDER=
